<?xml version="1.0" encoding="UTF-8" standalone="no"?> <svg width="24" height="24" viewBox="0 0 24 24" fill="none" xmlns="http://www.w3.org/2000/svg">
<path d="M6 21C5.73478 21 5.48043 20.8946 5.29289 20.7071C5.10536 20.5196 5 20.2652 5 20C5 18.1435 5.7375 16.363 7.05025 15.0503C8.36301 13.7375 10.1435 13 12 13C13.8565 13 15.637 13.7375 16.9497 15.0503C18.2625 16.363 19 18.1435 19 20C19 20.2652 18.8946 20.5196 18.7071 20.7071C18.5196 20.8946 18.2652 21 18 21H6ZM8 7C8 6.20888 8.2346 5.43552 8.67412 4.77772C9.11365 4.11992 9.73836 3.60723 10.4693 3.30448C11.2002 3.00173 12.0044 2.92252 12.7804 3.07686C13.5563 3.2312 14.269 3.61216 14.8284 4.17157C15.3878 4.73098 15.7688 5.44372 15.9231 6.21964C16.0775 6.99556 15.9983 7.79983 15.6955 8.53074C15.3928 9.26164 14.8801 9.88635 14.2223 10.3259C13.5645 10.7654 12.7911 11 12 11C10.9391 11 9.92172 10.5786 9.17157 9.82843C8.42143 9.07828 8 8.06087 8 7V7Z" fill="black"/>
</svg>
